<?xml version="1.0" standalone="no"?>
<!DOCTYPE svg PUBLIC "-//W3C//DTD SVG 20010904//EN"
 "http://www.w3.org/TR/2001/REC-SVG-20010904/DTD/svg10.dtd">
<svg version="1.0" xmlns="http://www.w3.org/2000/svg"
 width="778.000000pt" height="214.000000pt" viewBox="0 0 778.000000 214.000000"
 preserveAspectRatio="xMidYMid meet">

<g transform="translate(0.000000,214.000000) scale(0.100000,-0.100000)"
fill="#000000" stroke="none">
<path d="M3805 1557 c-128 -43 -190 -120 -189 -238 0 -53 5 -74 27 -112 46
-78 111 -112 327 -172 114 -31 136 -44 145 -85 16 -71 -42 -127 -140 -137
-101 -11 -181 40 -205 128 l-11 40 -57 -6 c-128 -13 -123 -12 -116 -53 17 -99
85 -191 173 -233 38 -19 67 -24 167 -27 143 -5 209 10 275 61 65 49 99 122 99
211 0 89 -22 138 -84 193 -47 41 -63 48 -299 118 -48 14 -97 35 -107 45 -42
42 -15 99 57 119 109 31 203 -9 220 -92 6 -29 7 -29 57 -23 28 3 71 6 94 6
l44 0 -7 43 c-15 88 -72 159 -160 199 -40 18 -71 23 -160 25 -71 2 -124 -2
-150 -10z"/>
<path d="M297 1133 c-91 -235 -169 -436 -173 -445 -6 -16 3 -18 89 -18 l96 0
21 58 c11 31 28 76 37 100 l16 42 176 -2 175 -3 37 -95 37 -95 96 -3 c73 -2
96 0 96 10 -1 7 -79 207 -173 443 l-173 430 -95 3 -95 3 -167 -428z m317 53
c31 -82 56 -153 56 -157 0 -5 -52 -9 -116 -9 -89 0 -115 3 -112 13 3 6 29 78
58 160 29 81 54 146 56 145 1 -2 27 -70 58 -152z"/>
<path d="M2190 1480 l0 -80 85 0 85 0 0 80 0 80 -85 0 -85 0 0 -80z"/>
<path d="M6980 1115 l0 -445 84 0 84 0 4 208 c4 229 13 269 69 297 44 23 103
19 136 -9 l28 -24 3 -236 3 -236 91 0 91 0 -5 253 c-4 232 -7 255 -26 293 -42
82 -119 121 -218 111 -54 -6 -121 -34 -143 -61 -8 -9 -17 -16 -22 -16 -5 0 -9
70 -9 155 l0 155 -85 0 -85 0 0 -445z"/>
<path d="M1380 1321 c-40 -13 -84 -37 -104 -60 -27 -30 -36 -26 -36 14 l0 35
-80 0 -80 0 0 -320 0 -321 88 3 87 3 5 220 c3 150 9 227 18 242 20 36 53 53
104 53 79 0 82 -10 86 -287 l3 -233 84 0 83 0 4 213 c3 178 6 217 21 244 24
44 54 63 103 63 34 0 47 -5 63 -26 20 -25 21 -39 21 -261 l0 -234 88 3 87 3 0
250 c0 249 0 251 -26 300 -59 116 -226 139 -331 45 l-43 -38 -41 38 c-58 53
-134 72 -204 51z"/>
<path d="M2820 1315 c-25 -8 -65 -31 -88 -50 l-42 -37 0 41 0 41 -80 0 -80 0
0 -320 0 -320 84 0 83 0 5 208 c5 228 13 263 67 295 45 27 112 22 142 -9 24
-25 24 -29 29 -257 l5 -232 85 0 85 0 0 250 c0 249 0 251 -25 300 -20 37 -37
55 -71 73 -58 29 -140 36 -199 17z"/>
<path d="M4592 1312 c-66 -24 -133 -87 -164 -156 -20 -44 -23 -67 -23 -171 0
-106 3 -125 24 -165 57 -110 125 -152 259 -158 109 -5 163 11 224 66 39 35 85
109 74 119 -3 3 -40 12 -83 20 -72 12 -79 12 -88 -4 -5 -9 -22 -30 -37 -45
-66 -69 -198 -1 -198 102 0 19 6 20 210 20 l210 0 0 38 c0 106 -41 222 -97
273 -76 72 -209 97 -311 61z m176 -138 c26 -18 42 -46 53 -91 l7 -33 -124 0
c-119 0 -124 1 -124 21 0 34 31 89 59 104 35 19 101 19 129 -1z"/>
<path d="M5267 1316 c-76 -21 -120 -61 -151 -138 l-15 -36 77 -14 c68 -13 78
-13 87 1 34 50 53 61 115 61 70 0 100 -21 100 -69 0 -34 -10 -38 -159 -71
-127 -27 -175 -51 -206 -104 -29 -50 -34 -139 -11 -184 35 -68 101 -102 196
-102 71 0 144 24 171 56 17 21 26 17 38 -16 l10 -30 87 0 c78 0 85 2 79 18
-24 57 -28 99 -34 302 -7 257 -10 269 -96 310 -58 28 -216 37 -288 16z m213
-402 c0 -50 -4 -60 -33 -89 -60 -60 -141 -57 -176 6 -12 22 -12 31 -2 58 12
27 23 34 80 51 69 20 98 27 119 29 8 1 12 -16 12 -55z"/>
<path d="M6054 1316 c-17 -8 -43 -29 -57 -47 l-27 -34 0 38 0 37 -80 0 -80 0
0 -320 0 -320 84 0 83 0 6 193 c6 211 15 256 55 287 27 22 64 23 118 5 19 -6
24 0 42 52 11 32 23 65 26 74 6 12 -3 20 -34 33 -49 19 -94 20 -136 2z"/>
<path d="M6468 1317 c-26 -8 -55 -20 -65 -27 -50 -39 -87 -80 -111 -125 -25
-46 -27 -60 -27 -170 0 -111 2 -124 28 -177 53 -108 140 -158 277 -158 100 0
162 22 215 75 43 42 82 123 72 148 -3 8 -27 17 -58 21 -28 4 -64 9 -79 12 -24
5 -27 2 -38 -33 -15 -51 -41 -73 -90 -80 -51 -7 -102 17 -127 60 -25 42 -33
184 -13 242 34 102 185 116 219 20 7 -19 15 -35 19 -35 10 0 164 30 166 33 2
2 -7 25 -20 52 -28 60 -76 108 -131 131 -53 22 -177 27 -237 11z"/>
<path d="M2190 990 l0 -320 85 0 85 0 0 320 0 320 -85 0 -85 0 0 -320z"/>
</g>
</svg>
