<svg width="100" height="100" xmlns="http://www.w3.org/2000/svg">
  <rect x="2" y="2" width="96" height="96" rx="15" ry="15" fill="#0d1117" stroke="#c0c0c0" stroke-width="4" />
  <svg xmlns="http://www.w3.org/2000/svg" xmlns:xlink="http://www.w3.org/1999/xlink" 
  viewBox="0 0 100 100" height="80" width="80" x="18" y="16" fill="#fff"
    fill-rule="evenodd" stroke="#000" stroke-linecap="round" stroke-linejoin="round">
    <use xlink:href="#A" x=".5" y=".5" />
    <symbol id="A" overflow="visible">
      <path
        d="M78.208 48.845l-6.572-2.783c-.995-.398-1.991-.994-1.792-1.193 0-.199.199-1.391.199-2.584v-5.366c0-1.193-.199-2.385-.199-2.584s.797-.795 1.792-1.193l6.572-2.584c.995-.398 1.593-1.59 1.195-2.783l-3.186-7.752c-.398-.994-1.593-1.59-2.788-1.192l-6.571 2.584c-.996.398-1.991.596-2.19.398s-.796-.994-1.593-1.988l-3.783-3.379c-.797-.795-1.792-1.391-1.992-1.59s0-1.193.398-2.186l2.788-6.559c.398-.994 0-2.385-1.195-2.783L51.524.149c-.995-.398-2.389 0-2.787 1.193l-2.788 6.559c-.398.994-.996 1.988-1.195 1.789-.199 0-1.394-.199-2.589-.397 0 0-1.195-.199-2.788-.199s-2.588.199-2.588.199c-1.195.199-2.191.199-2.589.397-.199 0-.796-.795-1.195-1.789l-2.588-6.559c-.398-.994-1.593-1.59-2.788-1.193l-7.766 3.18c-.995.397-1.593 1.59-1.195 2.783l2.589 6.559c.398.994.597 1.988.398 2.186s-.996.795-1.992 1.59l-3.186 3.777c-.797.795-1.394 1.789-1.593 1.987s-1.195 0-2.19-.397l-6.571-2.783c-.996-.397-2.39 0-2.788 1.193L.149 27.975c-.398.994 0 2.385 1.195 2.783l6.572 2.783c.995.398 1.991.994 1.792 1.193 0 .199-.199 1.391-.199 2.584v5.367c0 1.192.199 2.186.199 2.584 0 .199-.797.795-1.792 1.193l-6.572 2.584c-.995.397-1.593 1.59-1.195 2.783l3.186 7.752c.398.994 1.593 1.59 2.788 1.193l6.571-2.584c.996-.397 1.991-.596 2.19-.397s.796.994 1.593 1.987l3.783 3.776c.797.795 1.792 1.391 1.992 1.59s0 1.193-.398 2.186l-2.788 6.559c-.398.994 0 2.385 1.195 2.783l7.766 3.18c.995.398 2.39 0 2.787-1.192l2.788-6.559c.398-.994.996-1.988 1.195-1.789.199 0 1.394.199 2.589.397 0 0 1.195.199 2.788.199s2.588-.199 2.588-.199c1.195-.199 2.19-.199 2.589-.397.199 0 .796.795 1.195 1.789l2.588 6.559c.398.994 1.593 1.59 2.788 1.192l7.766-3.18c.995-.397 1.593-1.59 1.195-2.783l-2.589-6.559c-.398-.994-.597-1.988-.398-2.186s.996-.795 1.992-1.59l3.783-3.776c.797-.795 1.394-1.789 1.593-1.987s1.195 0 2.191.397l6.571 2.783c.996.398 2.39 0 2.788-1.193L80 52.025c-.199-1.59-.597-2.783-1.792-3.18zM39.776 60.77c-11.748 0-21.108-9.54-21.108-21.068 0-11.727 9.359-21.068 21.108-21.068s21.108 9.342 21.108 21.068S51.325 60.77 39.776 60.77z"
        fill="#fff" stroke="none" />
    </symbol>
  </svg>
</svg>