<?xml version="1.0" encoding="utf-8"?>
<!-- Generator: Adobe Illustrator 22.1.0, SVG Export Plug-In . SVG Version: 6.00 Build 0)  -->
<svg version="1.1" id="Target" xmlns="http://www.w3.org/2000/svg" xmlns:xlink="http://www.w3.org/1999/xlink" x="0px" y="0px"
	 viewBox="0 0 32 32" style="enable-background:new 0 0 32 32;" xml:space="preserve">
<style type="text/css">
	.st0{fill:none;stroke:#000000;stroke-width:3;stroke-miterlimit:10;}
</style>
<path id="Middle" d="M16.2,12.8c1.9,0,3.4,1.5,3.4,3.4c0,1.9-1.5,3.4-3.4,3.4s-3.4-1.5-3.4-3.4S14.3,12.8,16.2,12.8 M16.2,11.3
	c-2.7,0-4.9,2.2-4.9,4.9s2.2,4.9,4.9,4.9s4.9-2.2,4.9-4.9S18.9,11.3,16.2,11.3L16.2,11.3z"/>
<line id="Upper_Left" class="st0" x1="4.5" y1="4.5" x2="13.2" y2="13.2"/>
<line id="Lower_Right" class="st0" x1="19.3" y1="19.3" x2="28" y2="28"/>
<line id="Upper_Right" class="st0" x1="28" y1="4.5" x2="19.3" y2="13.2"/>
<line id="Lower_Left" class="st0" x1="13.2" y1="19.3" x2="4.5" y2="28"/>
</svg>
