<svg xmlns="http://www.w3.org/2000/svg" xmlns:xlink="http://www.w3.org/1999/xlink" viewBox="0 0 86.083 135.083"
    fill="#fff" fill-rule="evenodd" stroke="#000" stroke-linecap="round" stroke-linejoin="round">
    <use xlink:href="#A" x="1.042" y="1.042" />
    <symbol id="A" overflow="visible">
        <g stroke="none" fill-rule="nonzero">
            <path
                d="M73.618 113.06c15.756-20.396 8.4-45.567 5.096-53.271-.375-.875-1.937-1.16-2.046-.208-.254 2.25-.846 4.917-4.175 4.112-1.708-.417-2.808-1.158-2.808-3.917C70.751 28.423 47.788 7.077 39.797.348c-1.042-.896-2.64.063-2.417 1.467 5.117 31.948-3.35 29.76-6.458 28.792-.542-.167-1.125.115-1.375.64-9.558 20.208-7.104 29.719-7.333 36.346v1.996c0 3.638-2.948 5.379-5.333 4.313-4.281-1.908-5.01-13.277-5.027-16.298-.008-1.423-1.687-1.833-2.504-.692-18.344 25.556-4.844 48.327-.171 54.827 1.346 1.871 1.879 4.323 1.115 6.521-.083.246-.208.489-.304.729-.833 1.663 1.396 2.917 1.396 2.917 2.742 2.571 11.385 10.792 29.754 10.792 14.863 0 24.892-6.375 28.813-9.844 1.84-1.625 2.658-1.792 2.652-3.506-.008-2.052-.054-5.215 1.011-6.265"
                fill="#fcea2b" />
            <path
                d="M42.284 59.427c-.615 3.042-2.75 8.338-8.765 17.396l-.367.66c-.646 1.438-2.823 6.958-2.212 14.688 0 .004-1.194 9.035-6.202 8.283-1.042-.16-1.917-.521-2.613-.994-1.25-.867-2.965.225-2.812 1.775.667 6.65 3.34 16.838 12.819 24.317 0 0 2.673 2.208 3.004 4.115.01.063.063.104.125.104h10.988c.381 0 .433-.05.446-.125.075-.5.758-2.604 6.671-7.86 4.16-3.698 6.594-8.121 7.796-11.142.427-1.071-.208-2.327-1.333-2.515-.717-.119-1.485-.75-2.11-2.467-.015-.052-.452-1.75 1.25-5.333.792-1.667.883-3.467.75-4.927-.121-1.317-1.506-2.079-2.671-1.492-1.633.827-3.896 1.104-5.417-2.24 0 0-1.371-3.262-.179-11.358.91-6.179-2.104-16.375-5.892-21.615-.937-1.292-2.962-.846-3.279.729z"
                fill="#f1b31c" />
        </g>
        <path
            d="M11.735 119.84c7.25 7.5 18.063 11.406 29.152 11.406 10.531 0 22.308-4.087 29.667-11.392m-59.09-8.556s-21.942-23.333-.948-54.125c0 0 .41 8.458 2.615 13.713 1.006 2.158 2.525 4.077 4.896 4.077 2.781 0 5.037-1.869 5.037-5.354v-1.912c.219-6.458-1.094-15.971 7.438-35.833 0 0 14.66 7.883 8.333-30.442 0 0 31 21.754 29.742 58.785 0 2.646 2.017 4.787 4.504 4.787s4.504-2.146 4.504-4.787c.156.279 13.171 27.246-5.237 51.073M14.214 39.459c.495-2.698 1.911-5.141 4.006-6.913s3.962-3.408 3.323-7.979"
            fill="none" stroke-width="4.167" stroke-miterlimit="10" />
    </symbol>
</svg>