<svg width="100" height="100" xmlns="http://www.w3.org/2000/svg">
  <rect x="2" y="2" width="96" height="96" rx="15" ry="15" fill="#f0f0f0" stroke="#c0c0c0" stroke-width="4" />
  <svg xmlns="http://www.w3.org/2000/svg" xmlns:xlink="http://www.w3.org/1999/xlink" 
  viewBox="0 0 100 100" height="175" width="175" x="15" y="5" fill="#fff"
    fill-rule="evenodd" stroke="#000" stroke-linecap="round" stroke-linejoin="round">
    <defs>
      <symbol id="server" overflow="visible">
        <rect x="0" y="5" width="30" height="40" fill="#12921c" stroke="none" />
        <rect x="0" y="5" width="30" height="40" fill="none" stroke="#fff" stroke-width="0.8" />

        <polygon points="0,5 5,0 35,0 30,5" fill="#12921c" stroke="#fff" stroke-width="0.8" />

        <polygon points="30,5 35,0 35,40 30,45" fill="#12921c" stroke="#fff" stroke-width="0.8" />

        <rect x="3" y="10" width="24" height="5" fill="none" stroke="#fff" stroke-width="0.8" />
        <polygon points="27,10 32,5 32,10 27,15" fill="#12921c" stroke="#fff" stroke-width="0.8" />

        <rect x="3" y="20" width="24" height="5" fill="none" stroke="#fff" stroke-width="0.8" />
        <polygon points="27,20 32,15 32,20 27,25" fill="#12921c" stroke="#fff" stroke-width="0.8" />

        <rect x="3" y="30" width="24" height="5" fill="none" stroke="#fff" stroke-width="0.8" />
        <polygon points="27,30 32,25 32,30 27,35" fill="#12921c" stroke="#fff" stroke-width="0.8" />

        <circle cx="6" cy="12.5" r="1" fill="#fff" />
        <line x1="10" y1="12.5" x2="22" y2="12.5" stroke="#fff" stroke-width="0.8" />

        <circle cx="6" cy="22.5" r="1" fill="#fff" />
        <line x1="10" y1="22.5" x2="22" y2="22.5" stroke="#fff" stroke-width="0.8" />

        <circle cx="6" cy="32.5" r="1" fill="#fff" />
        <line x1="10" y1="32.5" x2="22" y2="32.5" stroke="#fff" stroke-width="0.8" />

      </symbol>
    </defs>
    <use xlink:href="#server" x="2.5" y="2.5" />
  </svg>
</svg>