<svg width="100" height="100" xmlns="http://www.w3.org/2000/svg">
  <rect x="2" y="2" width="96" height="96" rx="15" ry="15" fill="#f0f0f0" stroke="#c0c0c0" stroke-width="4" />
  <svg xmlns="http://www.w3.org/2000/svg" xmlns:xlink="http://www.w3.org/1999/xlink" 
    viewBox="0 0 100 125" height="90" width="90" x="22" y="10"
    fill="#fff" fill-rule="evenodd" stroke="#000" stroke-linecap="round" stroke-linejoin="round">
    <use xlink:href="#A" x="2.083" y="1.042" />
    <symbol id="A" overflow="visible">
      <g stroke="none" fill-rule="nonzero">
        <path
          d="M45.833 14.583v75c0 8.021-6.562 14.583-14.583 14.583H14.583C6.563 104.167 0 97.604 0 89.583v-75C0 6.563 6.563 0 14.583 0H31.25c8.021 0 14.583 6.563 14.583 14.583z"
          fill="#d0cfce" />
        <path
          d="M12.5 82.234c0-5.771 4.646-10.417 10.417-10.417s10.417 4.646 10.417 10.417S28.688 92.65 22.917 92.65 12.5 88.005 12.5 82.234z"
          fill="#b1cc33" />
        <path
          d="M12.5 53.067c0-5.771 4.646-10.417 10.417-10.417s10.417 4.646 10.417 10.417-4.646 10.417-10.417 10.417S12.5 58.838 12.5 53.067z"
          fill="#f4aa41" />
        <path
          d="M12.5 21.817c0-5.771 4.646-10.417 10.417-10.417s10.417 4.646 10.417 10.417-4.646 10.417-10.417 10.417S12.5 27.588 12.5 21.817z"
          fill="#ea5a47" />
      </g>
      <g fill="none" stroke-width="4.167">
        <path
          d="M45.833 14.958v75c0 8.021-6.562 14.583-14.583 14.583H14.583C6.563 104.542 0 97.979 0 89.958v-75C0 6.938 6.563.375 14.583.375H31.25c8.021 0 14.583 6.563 14.583 14.583z"
          stroke-miterlimit="10" />
        <path
          d="M12.5 82.609c0-5.771 4.646-10.417 10.417-10.417s10.417 4.646 10.417 10.417-4.646 10.417-10.417 10.417S12.5 88.38 12.5 82.609zm0-29.167c0-5.771 4.646-10.417 10.417-10.417s10.417 4.646 10.417 10.417-4.646 10.417-10.417 10.417S12.5 59.213 12.5 53.442zm0-31.25c0-5.771 4.646-10.417 10.417-10.417s10.417 4.646 10.417 10.417-4.646 10.417-10.417 10.417S12.5 27.963 12.5 22.192z" />
      </g>
    </symbol>
  </svg>
</svg>